<?xml version="1.0" encoding="UTF-8"?><svg xmlns="http://www.w3.org/2000/svg" viewBox="0 0 985 789.75001"><defs><style>.e{fill:#fff;}.f{fill:#8d61ed;}.g{fill:#a85deb;}.h{fill:#c757e7;}.i{fill:#6469ea;}</style></defs><g id="a"/><g id="b"><g id="c"><path class="i" d="M394.78998,.17005C176.75,.17005,0,176.92005,0,394.96003s176.75,394.78998,394.78998,394.78998,394.79004-176.75995,394.79004-394.78998l.97998-196.21002h174.44c11.04999,0,20-8.95996,20-20V20.00001C985,8.95002,976.03003-.00994,964.97998,0l-174.41998,.17004H394.78998Zm98.70001,394.78998c0,54.51001-44.19,98.69-98.70001,98.69s-98.69995-44.17999-98.69995-98.69,44.19-98.70001,98.69995-98.70001h98.70001v98.70001Z"/><path class="f" d="M394.79116,98.86293h297.08035l-.98698,.98698V394.9563c0-163.52785-132.56552-296.09337-296.09337-296.09337Z"/><path class="g" d="M394.79114,98.86292c-163.52783,0-296.09332,132.56549-296.09332,296.09338s132.56549,296.09338,296.09332,296.09338,296.09338-132.56555,296.09338-296.09338S558.31903,98.86292,394.79114,98.86292Zm98.69781,200.35651v95.73688c0,54.50928-44.18848,98.69775-98.69781,98.69775s-98.69775-44.18848-98.69775-98.69775,44.18848-98.69781,98.69775-98.69781h98.69781v2.96094Z"/><path class="h" d="M394.79114,197.56068c-109.01855,0-197.39557,88.37701-197.39557,197.39563s88.37701,197.39557,197.39557,197.39557,197.39563-88.37701,197.39563-197.39557V198.54768l.98694-.987h-198.38257Zm98.69885,197.39935c0,54.51001-44.19,98.69-98.70001,98.69s-98.69995-44.17999-98.69995-98.69,44.19-98.70001,98.69995-98.70001h98.70001v98.70001Z"/></g><g id="d"><path class="e" d="M948.6377,76.33747c0,13.70654-4.35352,24.84375-13.05469,33.41748-8.70508,8.57373-21.50098,12.86035-38.38672,12.86035h-11.49609c-13.63965,0-22.28027,6.49707-25.91602,19.48535h83.00781c2.9873,0,4.41504,1.49512,4.28711,4.48145v22.99316c0,2.98975-1.43066,4.48145-4.28711,4.48145h-116.52246c-2.85938,0-4.35352-1.4917-4.48145-4.48145v-10.71729c0-45.46484,21.30273-68.19873,63.91211-68.19873h11.49609c10.26074,0,15.39355-5.26123,15.39355-15.7832s-5.13281-15.7832-15.39355-15.7832h-66.63965c-2.99023,0-4.41797-1.42773-4.28711-4.28662V31.61872c0-2.98682,1.42773-4.48193,4.28711-4.48193h66.63965c16.36816,0,29.0332,4.77393,37.99609,14.32178,8.96387,9.54785,13.44531,21.17529,13.44531,34.87891Z"/></g></g></svg>