<svg xmlns="http://www.w3.org/2000/svg" viewBox="0 0 987.90985 719.04538"><defs><style>.cls-1{fill:#6469ea;}.cls-2{fill:#8d61ed;}.cls-3{fill:#a85deb;}.cls-4{fill:#c757e7;}.cls-5{fill:#fff;}</style></defs><g id="Livello_2" data-name="Livello 2"><g id="sigma"><path class="cls-1" d="M359.44528.15483C160.926.15483,0,161.08078,0,359.6001,0,558.11037,160.926,719.04538,359.44528,719.04538s359.44533-160.935,359.44533-359.44528l.89224-89.91506H969.7004a18.21025,18.21025,0,0,0,18.20945-18.20945V18.20945A18.21416,18.21416,0,0,0,969.68218,0L719.78285.15483ZM449.30889,359.6001a89.86359,89.86359,0,1,1-89.86361-89.86361h89.86361Z"/><path class="cls-2" d="M359.44636,90.01194H629.92974l-.89862.89862V359.59671C629.03112,210.70915,508.33391,90.01194,359.44636,90.01194Z"/><path class="cls-3" d="M359.44633,90.01194c-148.88753,0-269.58472,120.69718-269.58472,269.58477S210.5588,629.18149,359.44633,629.18149c148.88759,0,269.58478-120.69724,269.58478-269.58478S508.33392,90.01194,359.44633,90.01194Zm89.86161,182.419v87.16576a89.86158,89.86158,0,1,1-89.86161-89.86161h89.86161Z"/><path class="cls-4" d="M359.44633,179.87349A179.7232,179.7232,0,1,0,539.16955,359.59671V180.77213l.89858-.89864ZM449.30889,359.6001a89.86359,89.86359,0,1,1-89.86361-89.86361h89.86361Z"/></g><g id="logo"><path class="cls-5" d="M949.43,97.46061q0,30.72578-19.51107,49.94051-19.51164,19.21877-57.36633,19.21877H855.37184q-30.575,0-38.72869,29.12046H940.69349q6.69624,0,6.40626,6.6974v34.36157q0,6.70145-6.40626,6.6974H766.5565q-6.40857,0-6.6974-6.6974V220.7831q0-101.91756,95.51274-101.91958h17.18079q23.00013,0,23.00476-23.587,0-23.58762-23.00476-23.58705H772.96276q-6.70145,0-6.40626-6.40626V30.63046q0-6.69537,6.40626-6.698h99.58987q36.69243,0,56.784,21.40348Q949.42888,66.73917,949.43,97.46061Z"/></g></g></svg>